<svg width="48" height="131" viewBox="0 0 48 131" fill="none" xmlns="http://www.w3.org/2000/svg">
<g clip-path="url(#clip0)">
<rect width="130.217" height="46.9835" transform="translate(0.00732422 130.227) rotate(-89.8982)" fill="black"/>
<path d="M25.2992 119.121L25.2945 121.713L22.6546 121.709L22.66 118.637L20.5007 118.273L20.4962 120.793L17.8562 120.788L17.8615 117.788L13.207 116.964L13.212 114.156L29.9587 117.138L29.9537 119.946L25.2992 119.121ZM13.2152 112.308L13.2202 109.5L17.8748 110.324L17.8794 107.732L20.5194 107.737L20.5139 110.809L22.6733 111.173L22.6777 108.653L25.3177 108.657L25.3124 111.657L29.967 112.482L29.962 115.29L13.2152 112.308ZM29.9893 99.9235C29.9891 100.02 29.9529 100.109 29.8808 100.193C29.7967 100.265 29.7066 100.301 29.6106 100.301C29.5386 100.301 29.4846 100.295 29.4486 100.283L17.9002 96.0321C17.7562 95.9958 17.6364 95.9176 17.5406 95.7974C17.4448 95.6772 17.3971 95.5212 17.3974 95.3292L17.4021 92.6652C17.4025 92.4732 17.4508 92.3173 17.547 92.1974C17.6432 92.0776 17.7633 91.9998 17.9074 91.9641L29.4709 87.7726L29.6329 87.7369C29.7289 87.7371 29.8188 87.7792 29.9027 87.8634C29.9746 87.9355 30.0104 88.0256 30.0102 88.1336L30.0063 90.3476C30.0058 90.6356 29.8794 90.8273 29.6273 90.9229L27.79 91.6216L27.7815 96.4276L29.6163 97.1149C29.8681 97.2113 29.9937 97.4095 29.9932 97.7095L29.9893 99.9235ZM25.1967 92.337L20.4418 94.0026L25.1908 95.685L25.1967 92.337ZM30.0142 85.8688C30.014 85.9888 29.9718 86.0967 29.8877 86.1926C29.7915 86.2764 29.6834 86.3182 29.5634 86.318L17.8635 86.2972C17.7315 86.297 17.6235 86.2548 17.5397 86.1706C17.4559 86.0745 17.414 85.9664 17.4143 85.8464L17.4176 83.9384C17.4182 83.6384 17.5325 83.4346 17.7607 83.327L24.6805 78.9473L17.8765 78.9352C17.7445 78.935 17.6366 78.8928 17.5528 78.8086C17.4689 78.7125 17.4271 78.6044 17.4273 78.4844L17.4312 76.3244C17.4314 76.1924 17.4736 76.0845 17.5578 76.0007C17.6419 75.9168 17.75 75.875 17.882 75.8752L29.564 75.896C29.696 75.8962 29.8099 75.9384 29.9057 76.0226C29.9896 76.1067 30.0314 76.2148 30.0312 76.3468L30.0277 78.2728C30.0273 78.5368 29.9129 78.7346 29.6847 78.8662L23.0169 83.2464L29.5689 83.258C29.6889 83.2582 29.7968 83.3004 29.8927 83.3846C29.9765 83.4687 30.0183 83.5768 30.0181 83.7088L30.0142 85.8688ZM30.0372 72.9313C30.037 73.0513 29.9948 73.1592 29.9107 73.2551C29.8145 73.3389 29.7064 73.3807 29.5864 73.3805L17.8864 73.3597C17.7544 73.3595 17.6465 73.3173 17.5627 73.2332C17.4788 73.137 17.437 73.0289 17.4372 72.9089L17.4406 71.0009C17.4412 70.7009 17.5555 70.4971 17.7837 70.3895L24.7035 66.0098L17.8995 65.9977C17.7675 65.9975 17.6596 65.9553 17.5758 65.8712C17.4919 65.775 17.4501 65.6669 17.4503 65.5469L17.4542 63.3869C17.4544 63.2549 17.4966 63.147 17.5807 63.0632C17.6649 62.9793 17.773 62.9375 17.905 62.9377L29.5869 62.9585C29.7189 62.9587 29.8329 63.0009 29.9287 63.0851C30.0126 63.1693 30.0544 63.2773 30.0541 63.4093L30.0507 65.3353C30.0503 65.5993 29.9359 65.7971 29.7077 65.9287L23.0399 70.3089L29.5919 70.3205C29.7119 70.3207 29.8198 70.3629 29.9156 70.4471C29.9995 70.5312 30.0413 70.6393 30.0411 70.7713L30.0372 72.9313ZM30.0581 61.1638C30.058 61.2598 30.0218 61.3498 29.9497 61.4336C29.8655 61.5055 29.7755 61.5413 29.6795 61.5412C29.6075 61.541 29.5535 61.5349 29.5175 61.5229L17.969 57.2724C17.8251 57.2361 17.7052 57.1579 17.6094 57.0377C17.5137 56.9175 17.4659 56.7615 17.4663 56.5695L17.471 53.9055C17.4714 53.7135 17.5196 53.5575 17.6158 53.4377C17.7121 53.3179 17.8322 53.2401 17.9763 53.2044L29.5397 49.0129L29.7018 48.9772C29.7978 48.9774 29.8877 49.0195 29.9716 49.1037C30.0434 49.1758 30.0793 49.2659 30.0791 49.3739L30.0751 51.5879C30.0746 51.8759 29.9483 52.0676 29.6961 52.1632L27.8589 52.8619L27.8503 57.6679L29.6851 58.3552C29.937 58.4516 30.0626 58.6498 30.0621 58.9498L30.0581 61.1638ZM25.2656 53.5773L20.5106 55.2429L25.2597 56.9253L25.2656 53.5773ZM30.0831 47.1091C30.0829 47.2291 30.0407 47.337 29.9565 47.4329C29.8604 47.5167 29.7523 47.5585 29.6323 47.5583L17.9323 47.5375C17.8003 47.5373 17.6924 47.4951 17.6085 47.4109C17.5247 47.3148 17.4829 47.2067 17.4831 47.0867L17.4929 41.5967C17.4956 40.0847 17.8096 38.9633 18.4349 38.2324C19.0482 37.4895 19.9248 37.119 21.0648 37.1211C21.6648 37.1221 22.1746 37.279 22.594 37.5918C23.0015 37.8925 23.3009 38.235 23.4922 38.6194C23.7211 38.1278 24.0878 37.7144 24.5924 37.3793C25.097 37.0442 25.6613 36.8772 26.2853 36.8783C27.4853 36.8805 28.4206 37.2781 29.0912 38.0713C29.7618 38.8645 30.0957 39.9931 30.0931 41.4571L30.0831 47.1091ZM22.4962 41.9656C22.4971 41.4856 22.3777 41.1194 22.1382 40.867C21.8866 40.6145 21.5569 40.4879 21.1489 40.4872C20.7529 40.4865 20.4346 40.6119 20.1942 40.8635C19.9537 41.1151 19.8331 41.4809 19.8322 41.9609L19.8281 44.3009L22.4921 44.3056L22.4962 41.9656ZM27.7525 41.8129C27.7534 41.3209 27.6101 40.9367 27.3226 40.6602C27.0351 40.3837 26.6873 40.245 26.2793 40.2443C25.8473 40.2436 25.4931 40.3809 25.2166 40.6564C24.9281 40.9319 24.7834 41.3157 24.7825 41.8077L24.7781 44.3097L27.7481 44.3149L27.7525 41.8129ZM30.1056 34.4353C30.1054 34.5553 30.0632 34.6632 29.979 34.7591C29.8829 34.8429 29.7748 34.8847 29.6548 34.8845L17.9548 34.8637C17.8228 34.8635 17.7149 34.8213 17.6311 34.7371C17.5472 34.641 17.5054 34.5329 17.5056 34.4129L17.514 29.7329C17.5171 27.9689 17.9395 26.6017 18.7812 25.6312C19.623 24.6606 20.8419 24.1528 22.438 24.1076C22.786 24.0963 23.248 24.0911 23.824 24.0921C24.4 24.0931 24.856 24.0999 25.192 24.1125C26.8598 24.1755 28.101 24.6757 28.9153 25.6132C29.7177 26.5386 30.1173 27.8893 30.1141 29.6653L30.1056 34.4353ZM27.5219 29.7507C27.5234 28.9587 27.3384 28.3764 26.967 28.0037C26.5837 27.631 25.9781 27.4319 25.1501 27.4065C24.8021 27.3819 24.3522 27.3691 23.8002 27.3681C23.2482 27.3671 22.8042 27.3783 22.4681 27.4017C21.6641 27.4243 21.0697 27.6392 20.685 28.0465C20.3003 28.4419 20.1072 29.0355 20.1058 29.8275L20.1026 31.6275L27.5186 31.6407L27.5219 29.7507ZM30.1285 21.5505C30.1283 21.6825 30.0861 21.7905 30.0019 21.8743C29.9178 21.9582 29.8097 22 29.6777 21.9997L17.9777 21.979C17.8457 21.9787 17.7378 21.9365 17.654 21.8524C17.5701 21.7562 17.5283 21.6482 17.5285 21.5282L17.5327 19.2062C17.5329 19.0742 17.5751 18.9662 17.6592 18.8824C17.7434 18.7865 17.8515 18.7387 17.9835 18.739L22.3215 18.7467L22.3294 14.3187L17.9914 14.311C17.8594 14.3107 17.7514 14.2685 17.6676 14.1844C17.5837 14.1002 17.5419 13.9922 17.5422 13.8602L17.5463 11.5382C17.5465 11.4062 17.5887 11.2982 17.6729 11.2144C17.757 11.1305 17.8651 11.0887 17.9971 11.089L29.6971 11.1098C29.8291 11.11 29.937 11.1522 30.0208 11.2363C30.1047 11.3205 30.1465 11.4286 30.1463 11.5606L30.1421 13.8826C30.1419 14.0145 30.0997 14.1225 30.0156 14.2063C29.9314 14.2902 29.8233 14.332 29.6913 14.3318L25.2093 14.3238L25.2015 18.7518L29.6835 18.7597C29.8155 18.76 29.9234 18.8082 30.0072 18.9043C30.0911 18.9885 30.1329 19.0965 30.1326 19.2285L30.1285 21.5505Z" fill="#EAFE0A"/>
</g>
<defs>
<clipPath id="clip0">
<rect width="130.217" height="46.9835" fill="white" transform="translate(0.00732422 130.227) rotate(-89.8982)"/>
</clipPath>
</defs>
</svg>
